<svg width="104" height="104" viewBox="0 0 104 104" fill="none" xmlns="http://www.w3.org/2000/svg">
<path d="M18.0632 83.0523C23.5301 79.2844 28.9687 76.3634 34.379 74.2893C39.7893 72.2159 45.663 71.1791 52 71.1791C58.337 71.1791 64.2248 72.2159 69.6634 74.2893C75.1021 76.3634 80.5545 79.2844 86.0209 83.0523C89.9998 78.442 92.9559 73.574 94.8891 68.4482C96.8228 63.3225 97.7897 57.8397 97.7897 52C97.7897 39.0878 93.3861 28.2281 84.579 19.421C75.7719 10.6139 64.9122 6.2103 52 6.2103C39.0878 6.2103 28.2281 10.6139 19.421 19.421C10.6139 28.2281 6.2103 39.0878 6.2103 52C6.2103 57.8397 7.19103 63.3225 9.15251 68.4482C11.114 73.574 14.0842 78.442 18.0632 83.0523ZM51.9703 55.1051C47.0499 55.1051 42.9109 53.4164 39.5531 50.0388C36.1948 46.6612 34.5156 42.512 34.5156 37.5911C34.5156 32.6707 36.2047 28.5316 39.5828 25.1738C42.9604 21.8161 47.1093 20.1372 52.0297 20.1372C56.9501 20.1372 61.0891 21.826 64.4469 25.2036C67.8052 28.5811 69.4844 32.7301 69.4844 37.6505C69.4844 42.5714 67.7953 46.7107 64.4172 50.0685C61.0396 53.4263 56.8907 55.1051 51.9703 55.1051ZM52.0636 104C44.8565 104 38.0946 102.642 31.7779 99.9257C25.4618 97.2101 19.9443 93.4891 15.2253 88.7628C10.5069 84.0365 6.78991 78.5297 4.07429 72.2424C1.3581 65.9552 0 59.2043 0 51.9898C0 44.7753 1.3581 38.0278 4.07429 31.7474C6.78991 25.4669 10.5109 19.9635 15.2372 15.2372C19.9635 10.5109 25.4703 6.78991 31.7576 4.07428C38.0448 1.35809 44.7957 0 52.0102 0C59.2247 0 65.9722 1.35809 72.2526 4.07428C78.5331 6.78991 84.0365 10.5109 88.7628 15.2372C93.4891 19.9635 97.2101 25.4683 99.9257 31.7516C102.642 38.0355 104 44.7637 104 51.9363C104 59.1435 102.642 65.9054 99.9257 72.2221C97.2101 78.5382 93.4891 84.0557 88.7628 88.7747C84.0365 93.4931 78.5317 97.2101 72.2484 99.9257C65.9645 102.642 59.2363 104 52.0636 104ZM52 97.7897C57.0878 97.7897 62.1055 96.9809 67.0531 95.3635C72 93.7454 76.6596 91.1296 81.0317 87.5161C76.6596 84.3021 72.0297 81.8108 67.1422 80.0422C62.2546 78.2737 57.2072 77.3894 52 77.3894C46.7928 77.3894 41.7366 78.2649 36.8315 80.0159C31.9264 81.7664 27.3229 84.2664 23.0209 87.5161C27.358 91.1296 32.0003 93.7454 36.9478 95.3635C41.8948 96.9809 46.9122 97.7897 52 97.7897ZM52.0076 48.8948C55.28 48.8948 57.9758 47.8326 60.0951 45.7082C62.2144 43.5844 63.2741 40.8863 63.2741 37.614C63.2741 34.3416 62.2119 31.6458 60.0875 29.5265C57.9631 27.4072 55.2647 26.3475 51.9924 26.3475C48.72 26.3475 46.0242 27.4094 43.9049 29.5333C41.7856 31.6577 40.7259 34.3561 40.7259 37.6284C40.7259 40.9007 41.7881 43.5965 43.9125 45.7159C46.0369 47.8352 48.7353 48.8948 52.0076 48.8948Z" fill="black" fill-opacity="0.5"/>
</svg>
