<svg width="44" height="44" viewBox="0 0 44 44" fill="none" xmlns="http://www.w3.org/2000/svg">
<g clip-path="url(#clip0_292_124)">
<path d="M22 40.3333C24.0166 40.3333 25.6666 38.6833 25.6666 36.6666H18.3333C18.3333 38.6833 19.965 40.3333 22 40.3333ZM33 29.3333V20.1666C33 14.5383 29.9933 9.82665 24.75 8.57998V7.33331C24.75 5.81165 23.5216 4.58331 22 4.58331C20.4783 4.58331 19.25 5.81165 19.25 7.33331V8.57998C13.9883 9.82665 11 14.52 11 20.1666V29.3333L8.63497 31.6983C7.47997 32.8533 8.28664 34.8333 9.91831 34.8333H34.0633C35.695 34.8333 36.52 32.8533 35.365 31.6983L33 29.3333Z" fill="#0066FF"/>
</g>
<defs>
<clipPath id="clip0_292_124">
<rect width="44" height="44" fill="white"/>
</clipPath>
</defs>
</svg>
