<svg width="50" height="50" viewBox="0 0 50 50" fill="none" xmlns="http://www.w3.org/2000/svg">
<path d="M38.7567 3.38579C36.3803 1.85193 33.7257 0.727095 30.8689 0.062421C29.3014 -0.29548 27.8098 0.93161 27.8098 2.56773C27.8098 3.71813 28.5682 4.79183 29.6806 5.04748C31.9812 5.55876 34.1555 6.47908 36.0769 7.73174C37.0629 8.37085 38.3269 8.16633 39.1612 7.32271C40.2989 6.17231 40.1219 4.25498 38.7567 3.38579ZM47.4536 22.4313C49.0716 22.4313 50.3104 20.923 49.9312 19.338C49.2739 16.4748 48.1615 13.7905 46.6446 11.3619C45.785 9.98141 43.8636 9.80246 42.7259 10.9529C41.9169 11.7709 41.7147 13.0747 42.3214 14.0717C43.5602 16.0402 44.4704 18.2131 44.976 20.5395C45.2541 21.6643 46.2906 22.4313 47.4536 22.4313ZM42.7259 39.0226C43.8636 40.173 45.785 39.994 46.6446 38.6391C48.1615 36.236 49.2739 33.5518 49.9312 30.6886C50.2851 29.1036 49.0463 27.5953 47.4536 27.5953C46.3159 27.5953 45.2541 28.3622 45.0013 29.487C44.4956 31.8134 43.5602 33.9864 42.3467 35.9548C41.7147 36.9007 41.9169 38.2045 42.7259 39.0226ZM27.8098 47.4077C27.8098 49.0438 29.3014 50.2965 30.8689 49.913C33.7004 49.2483 36.355 48.1235 38.7314 46.5896C40.0966 45.7204 40.2736 43.7775 39.1359 42.6271C38.3269 41.8091 37.0376 41.6046 36.0769 42.2437C34.1555 43.4963 32.0065 44.4166 29.6806 44.9279C28.5682 45.1836 27.8098 46.2317 27.8098 47.4077ZM27.8098 24.9877V14.7619C27.8098 13.3559 26.6721 12.2055 25.2816 12.2055C23.8911 12.2055 22.7535 13.3559 22.7535 14.7619V24.9877H18.7337C16.4836 24.9877 15.3459 27.7487 16.9387 29.3592L23.4866 35.9804C24.4726 36.9774 26.0653 36.9774 27.0513 35.9804L33.5993 29.3592C35.192 27.7487 34.0543 24.9877 31.8043 24.9877H27.8098ZM22.7535 47.4077C22.7535 49.0438 21.2618 50.2965 19.6944 49.9386C8.41878 47.3565 0 37.1819 0 24.9877C0 12.7935 8.41878 2.61886 19.6944 0.062421C21.2618 -0.29548 22.7535 0.93161 22.7535 2.56773C22.7535 3.74369 21.9697 4.79183 20.8321 5.04748C11.8065 7.09263 5.05632 15.2477 5.05632 24.9877C5.05632 34.7277 11.8065 42.8828 20.8321 44.9279C21.9697 45.1836 22.7535 46.2317 22.7535 47.4077Z" fill="white" class="animated-file-icon-downloding"/>
<circle cx="25" cy="25" r="20" fill="#CBCBCB"/>
<path d="M29.6863 31.0307L24.5732 25.7039L19.2464 30.817C18.6604 31.3795 17.7208 31.3602 17.1584 30.7743C16.5959 30.1883 16.6152 29.2487 17.2011 28.6863L22.5279 23.5732L17.4148 18.2464C16.8523 17.6604 16.8716 16.7208 17.4575 16.1584C18.0435 15.5959 18.9831 15.6152 19.5455 16.2011L24.6586 21.5279L29.9854 16.4148C30.5714 15.8523 31.511 15.8716 32.0734 16.4575C32.6359 17.0435 32.6166 17.9831 32.0307 18.5455L26.7039 23.6586L31.817 28.9854C32.3795 29.5714 32.3602 30.511 31.7743 31.0734C31.1883 31.6359 30.2487 31.6166 29.6863 31.0307Z" fill="white"/>
<style>
.animated-file-icon-downloding {
  animation-name: rotatedAnim;
  animation-timing-function: linear;
  animation-duration: 3s;
  animation-fill-mode: both;
  animation-iteration-count: infinite;
  transform-origin: center;
}
@keyframes rotatedAnim {
  0% {
    transform: rotate(0);
  }
  100% {
    transform: rotate(360deg);
  }
}
</style>
</svg>

