<svg xmlns="http://www.w3.org/2000/svg" width="47" height="61" viewBox="0 0 47 61" fill="none">
  <path d="M23.5 6.79119V1.48635C23.5 0.152727 21.9137 -0.499265 21.0031 0.449088L12.7781 8.71753C12.1906 9.31025 12.1906 10.229 12.7781 10.8217L20.9738 19.0901C21.9138 20.0089 23.5 19.3569 23.5 18.0232V12.7184C33.2231 12.7184 41.125 20.6905 41.125 30.5C41.125 32.8412 40.6844 35.1232 39.8325 37.1681C39.3919 38.235 39.715 39.4501 40.5081 40.2502C42.0063 41.7617 44.5325 41.2282 45.3256 39.2426C46.4125 36.5457 47 33.5821 47 30.5C47 17.4009 36.4837 6.79119 23.5 6.79119ZM23.5 48.2816C13.7769 48.2816 5.875 40.3095 5.875 30.5C5.875 28.1588 6.31563 25.8768 7.1675 23.8319C7.60813 22.765 7.285 21.5499 6.49188 20.7498C4.99375 19.2383 2.4675 19.7718 1.67438 21.7574C0.587501 24.4543 0 27.4179 0 30.5C0 43.5991 10.5162 54.2088 23.5 54.2088V59.5137C23.5 60.8473 25.0863 61.4993 25.9969 60.5509L34.1925 52.2825C34.78 51.6897 34.78 50.771 34.1925 50.1783L25.9969 41.9099C25.0863 40.9911 23.5 41.6431 23.5 42.9768V48.2816Z" fill="#428cff"/>
</svg>