<svg width="30" height="30" viewBox="0 0 30 30"  xmlns="http://www.w3.org/2000/svg">
<path d="M7.51237 27.0016V10.4732C7.51237 9.64869 7.8122 8.94908 8.41187 8.37439C9.01154 7.79971 9.72365 7.51237 10.5482 7.51237H27.0016C27.8262 7.51237 28.5321 7.80596 29.1192 8.39313C29.7064 8.98031 30 9.68617 30 10.5107V22.5041L22.5041 30H10.5107C9.68617 30 8.98031 29.7064 8.39313 29.1192C7.80596 28.5321 7.51237 27.8262 7.51237 27.0016ZM0.0539703 6.38799C-0.0959472 5.56344 0.0664634 4.8201 0.541202 4.15796C1.01594 3.49583 1.66558 3.0898 2.49013 2.93988L18.7562 0.0539703C19.5807 -0.0959472 20.3241 0.0664634 20.9862 0.541202C21.6483 1.01594 22.0544 1.66558 22.2043 2.49013L22.5791 4.51402H19.5058L19.2434 3.01484L3.01484 5.90075L4.51402 14.3711V24.8278C4.11424 24.603 3.77068 24.3031 3.48333 23.9283C3.19599 23.5535 3.01484 23.1288 2.93988 22.654L0.0539703 6.38799ZM10.5107 10.5107V27.0016H21.0049V21.0049H27.0016V10.5107H10.5107Z"/>
</svg>
