<svg width="36" height="39" viewBox="0 0 36 39" fill="none" xmlns="http://www.w3.org/2000/svg">
<path d="M34.2 26.4408H12.6C11.61 26.4408 10.8 25.6369 10.8 24.6543V5.00232H12.222C13.032 5.00232 13.428 4.03758 12.852 3.48376L9.63 0.267981C9.27 -0.0893271 8.712 -0.0893271 8.352 0.267981L5.13 3.48376C4.572 4.03758 4.968 5.00232 5.778 5.00232H7.2V8.5754H1.8C0.81 8.5754 0 9.37934 0 10.3619C0 11.3445 0.81 12.1485 1.8 12.1485H7.2V26.4408C7.2 28.406 8.82 30.0139 10.8 30.0139H25.2V33.587H23.778C22.968 33.587 22.572 34.5517 23.148 35.1055L26.37 38.3034C26.73 38.6608 27.288 38.6608 27.648 38.3034L30.87 35.1055C31.446 34.5517 31.032 33.587 30.24 33.587H28.8V30.0139H34.2C35.19 30.0139 36 29.21 36 28.2274C36 27.2448 35.19 26.4408 34.2 26.4408ZM25.2 22.8677H28.8V12.1485C28.8 10.1833 27.18 8.5754 25.2 8.5754H14.4V12.1485H23.4C24.39 12.1485 25.2 12.9524 25.2 13.935V22.8677Z" fill="black"/>
</svg>
