<svg width="36" height="36" viewBox="0 0 36 36" fill="none" xmlns="http://www.w3.org/2000/svg">
<path d="M32.4727 24.5495L27.3825 23.9684C26.16 23.8281 24.9576 24.2489 24.0958 25.1107L20.4084 28.7981C14.737 25.9123 10.0877 21.283 7.20184 15.5915L10.9093 11.884C11.771 11.0222 12.1919 9.81982 12.0516 8.59735L11.4704 3.54716C11.2299 1.52307 9.52652 0 7.48241 0H4.01543C1.75087 0 -0.132921 1.8838 0.00736177 4.14837C1.0695 21.2629 14.757 34.9305 31.8515 35.9926C34.116 36.1329 35.9998 34.2491 35.9998 31.9845V28.5176C36.0198 26.4935 34.4968 24.79 32.4727 24.5495Z" fill="white"/>
</svg>
