<svg xmlns="http://www.w3.org/2000/svg" width="51" height="45" viewBox="0 0 51 45" fill="none">
  <path d="M4.63636 45C3.36136 45 2.26989 44.5594 1.36193 43.6781C0.453977 42.7969 0 41.7375 0 40.5V13.5C0 12.2625 0.453977 11.2031 1.36193 10.3219C2.26989 9.44063 3.36136 9 4.63636 9H11.9386L16.2273 4.5H30.1364V9H18.2557L14.025 13.5H4.63636V40.5H41.7273V20.25H46.3636V40.5C46.3636 41.7375 45.9097 42.7969 45.0017 43.6781C44.0938 44.5594 43.0023 45 41.7273 45H4.63636ZM41.7273 13.5V9H37.0909V4.5H41.7273V0H46.3636V4.5H51V9H46.3636V13.5H41.7273ZM23.1818 37.125C26.0795 37.125 28.5426 36.1406 30.571 34.1719C32.5994 32.2031 33.6136 29.8125 33.6136 27C33.6136 24.1875 32.5994 21.7969 30.571 19.8281C28.5426 17.8594 26.0795 16.875 23.1818 16.875C20.2841 16.875 17.821 17.8594 15.7926 19.8281C13.7642 21.7969 12.75 24.1875 12.75 27C12.75 29.8125 13.7642 32.2031 15.7926 34.1719C17.821 36.1406 20.2841 37.125 23.1818 37.125ZM23.1818 32.625C21.5591 32.625 20.1875 32.0813 19.067 30.9938C17.9466 29.9063 17.3864 28.575 17.3864 27C17.3864 25.425 17.9466 24.0938 19.067 23.0063C20.1875 21.9188 21.5591 21.375 23.1818 21.375C24.8045 21.375 26.1761 21.9188 27.2966 23.0063C28.417 24.0938 28.9773 25.425 28.9773 27C28.9773 28.575 28.417 29.9063 27.2966 30.9938C26.1761 32.0813 24.8045 32.625 23.1818 32.625Z" fill="black" fill-opacity="0.4"/>
</svg>