<svg xmlns="http://www.w3.org/2000/svg" width="26" height="19" viewBox="0 0 26 19" fill="none">
  <path d="M16.5455 9.5C19.1573 9.5 21.2727 7.37437 21.2727 4.75C21.2727 2.12562 19.1573 0 16.5455 0C13.9336 0 11.8182 2.12562 11.8182 4.75C11.8182 7.37437 13.9336 9.5 16.5455 9.5ZM5.90909 7.125V4.75C5.90909 4.09688 5.37727 3.5625 4.72727 3.5625C4.07727 3.5625 3.54545 4.09688 3.54545 4.75V7.125H1.18182C0.531818 7.125 0 7.65938 0 8.3125C0 8.96562 0.531818 9.5 1.18182 9.5H3.54545V11.875C3.54545 12.5281 4.07727 13.0625 4.72727 13.0625C5.37727 13.0625 5.90909 12.5281 5.90909 11.875V9.5H8.27273C8.92273 9.5 9.45455 8.96562 9.45455 8.3125C9.45455 7.65938 8.92273 7.125 8.27273 7.125H5.90909ZM16.5455 11.875C13.39 11.875 7.09091 13.4662 7.09091 16.625V17.8125C7.09091 18.4656 7.62273 19 8.27273 19H24.8182C25.4682 19 26 18.4656 26 17.8125V16.625C26 13.4662 19.7009 11.875 16.5455 11.875Z" fill="#959798"/>
</svg>