<svg xmlns="http://www.w3.org/2000/svg" width="18" height="18" viewBox="0 0 18 18" fill="none">
  <path d="M14 7.815C14.34 7.815 14.67 7.855 15 7.905V4.395C15 3.595 14.53 2.875 13.8 2.565L8.3 0.165C7.79 -0.055 7.21 -0.055 6.7 0.165L1.2 2.565C0.47 2.885 0 3.605 0 4.395V7.995C0 12.535 3.2 16.785 7.5 17.815C8.05 17.685 8.58 17.495 9.1 17.265C8.41 16.285 8 15.095 8 13.815C8 10.505 10.69 7.815 14 7.815Z" fill="black" fill-opacity="0.4"/>
  <path d="M14 9.81543C11.79 9.81543 10 11.6054 10 13.8154C10 16.0254 11.79 17.8154 14 17.8154C16.21 17.8154 18 16.0254 18 13.8154C18 11.6054 16.21 9.81543 14 9.81543ZM14 11.1954C14.62 11.1954 15.12 11.7054 15.12 12.3154C15.12 12.9254 14.61 13.4354 14 13.4354C13.39 13.4354 12.88 12.9254 12.88 12.3154C12.88 11.7054 13.38 11.1954 14 11.1954ZM14 16.5654C13.07 16.5654 12.26 16.1054 11.76 15.3954C11.81 14.6754 13.27 14.3154 14 14.3154C14.73 14.3154 16.19 14.6754 16.24 15.3954C15.74 16.1054 14.93 16.5654 14 16.5654Z" fill="black" fill-opacity="0.4"/>
</svg>