<svg xmlns="http://www.w3.org/2000/svg" width="19" height="23" viewBox="0 0 19 23" fill="none">
  <path d="M1.21932 13.0081L14.8391 13.0081L8.88882 20.4044C8.41328 20.9956 8.41328 21.9656 8.88882 22.5567C9.36435 23.1478 10.1325 23.1478 10.6081 22.5567L18.6433 12.5685C19.1189 11.9774 19.1189 11.0226 18.6433 10.4315L10.6081 0.44333C10.1325 -0.147774 9.36435 -0.147774 8.88882 0.44333C8.41328 1.03443 8.41328 1.9893 8.88882 2.5804L14.8391 9.97677L1.21932 9.97677C0.548694 9.97677 1.13249e-06 10.6588 1.13249e-06 11.4924C1.13249e-06 12.326 0.548694 13.0081 1.21932 13.0081Z" fill="white"/>
</svg>