<svg xmlns="http://www.w3.org/2000/svg" width="80" height="48" viewBox="0 0 80 48" fill="none">
  <path d="M40.4 47.184C39.4327 47.184 38.4654 46.969 37.498 46.539C36.53 46.109 35.67 45.5177 34.918 44.765L3.15104 12.999C1.64638 11.4937 0.894043 9.72 0.894043 7.678C0.894043 5.63533 1.64638 3.86133 3.15104 2.356C4.65638 0.851332 6.45704 0.098999 8.55304 0.098999C10.649 0.098999 12.4497 0.851332 13.955 2.356L40.4 28.801L66.845 2.356C68.3504 0.851332 70.124 0.098999 72.166 0.098999C74.2087 0.098999 75.9824 0.851332 77.487 2.356C78.9924 3.86133 79.745 5.662 79.745 7.758C79.745 9.85467 78.9924 11.6553 77.487 13.16L45.883 44.765C45.1304 45.5177 44.2704 46.109 43.303 46.539C42.335 46.969 41.3674 47.184 40.4 47.184Z" fill="black"/>
</svg>