<svg xmlns="http://www.w3.org/2000/svg" width="36" height="32" viewBox="0 0 36 32" fill="none">
  <path d="M3.27273 32C2.37273 32 1.60227 31.6867 0.961364 31.06C0.320455 30.4333 0 29.68 0 28.8V9.6C0 8.72 0.320455 7.96667 0.961364 7.34C1.60227 6.71333 2.37273 6.4 3.27273 6.4H8.42727L11.4545 3.2H21.2727V6.4H12.8864L9.9 9.6H3.27273V28.8H29.4545V14.4H32.7273V28.8C32.7273 29.68 32.4068 30.4333 31.7659 31.06C31.125 31.6867 30.3545 32 29.4545 32H3.27273ZM29.4545 9.6V6.4H26.1818V3.2H29.4545V0H32.7273V3.2H36V6.4H32.7273V9.6H29.4545ZM16.3636 26.4C18.4091 26.4 20.1477 25.7 21.5795 24.3C23.0114 22.9 23.7273 21.2 23.7273 19.2C23.7273 17.2 23.0114 15.5 21.5795 14.1C20.1477 12.7 18.4091 12 16.3636 12C14.3182 12 12.5795 12.7 11.1477 14.1C9.71591 15.5 9 17.2 9 19.2C9 21.2 9.71591 22.9 11.1477 24.3C12.5795 25.7 14.3182 26.4 16.3636 26.4ZM16.3636 23.2C15.2182 23.2 14.25 22.8133 13.4591 22.04C12.6682 21.2667 12.2727 20.32 12.2727 19.2C12.2727 18.08 12.6682 17.1333 13.4591 16.36C14.25 15.5867 15.2182 15.2 16.3636 15.2C17.5091 15.2 18.4773 15.5867 19.2682 16.36C20.0591 17.1333 20.4545 18.08 20.4545 19.2C20.4545 20.32 20.0591 21.2667 19.2682 22.04C18.4773 22.8133 17.5091 23.2 16.3636 23.2Z" fill="#0066FF"/>
</svg>