<svg xmlns="http://www.w3.org/2000/svg" width="31" height="31" viewBox="0 0 31 31" fill="none">
  <path d="M3.66402 30.0288C3.9042 29.8368 17.2032 19.0119 17.2032 19.0119L28.4692 18.8012C29.5002 18.7819 30.328 17.9226 30.3084 16.8728L30.2379 13.105C30.2186 12.074 29.3589 11.2274 28.3279 11.2467L17.0431 11.4578C17.0431 11.4578 3.69131 1.41269 3.08234 0.936529C2.47337 0.460366 1.87457 0.527824 1.87457 0.527824C0.843565 0.547109 0.0157963 1.40644 0.035432 2.45618L0.525621 28.6624C0.54701 29.8058 1.46082 30.5388 2.43558 30.5206C2.81049 30.5136 3.25828 30.3927 3.66402 30.0288Z" fill="black" fill-opacity="0.4"/>
</svg>