<svg xmlns="http://www.w3.org/2000/svg" width="25" height="25" viewBox="0 0 25 25" fill="none">
  <path d="M12.4875 0C5.5875 0 0 5.6 0 12.5C0 19.4 5.5875 25 12.4875 25C19.4 25 25 19.4 25 12.5C25 5.6 19.4 0 12.4875 0ZM12.5 22.5C6.975 22.5 2.5 18.025 2.5 12.5C2.5 6.975 6.975 2.5 12.5 2.5C18.025 2.5 22.5 6.975 22.5 12.5C22.5 18.025 18.025 22.5 12.5 22.5ZM12.225 6.25H12.15C11.65 6.25 11.25 6.65 11.25 7.15V13.05C11.25 13.4875 11.475 13.9 11.8625 14.125L17.05 17.2375C17.475 17.4875 18.025 17.3625 18.275 16.9375C18.5375 16.5125 18.4 15.95 17.9625 15.7L13.125 12.825V7.15C13.125 6.65 12.725 6.25 12.225 6.25Z" fill="black" fill-opacity="0.5"/>
</svg>