<svg xmlns="http://www.w3.org/2000/svg" width="27" height="27" viewBox="0 0 27 27" fill="none">
  <path d="M21.6475 25.4165L13.4277 16.8531L4.86434 25.073C3.92237 25.9772 2.41188 25.9463 1.5077 25.0043C0.603513 24.0623 0.634429 22.5518 1.5764 21.6476L10.1398 13.4278L1.9199 4.86444C1.01571 3.92247 1.04663 2.41198 1.9886 1.5078C2.93057 0.603612 4.44106 0.634526 5.34524 1.5765L13.5651 10.1398L22.1284 1.92C23.0704 1.01581 24.5809 1.04673 25.4851 1.9887C26.3893 2.93067 26.3584 4.44115 25.4164 5.34534L16.853 13.5652L25.0729 22.1285C25.9771 23.0705 25.9462 24.581 25.0042 25.4852C24.0622 26.3894 22.5517 26.3585 21.6475 25.4165Z" fill="white"/>
</svg>