<svg xmlns="http://www.w3.org/2000/svg" width="12" height="12" viewBox="0 0 12 12" fill="none">
  <path d="M9.80673 11.4511L6.22068 7.71516L2.48476 11.3012C2.07381 11.6957 1.41483 11.6822 1.02037 11.2712C0.6259 10.8603 0.639386 10.2013 1.05034 9.80685L4.78625 6.22079L1.2002 2.48487C0.80573 2.07392 0.819217 1.41495 1.23017 1.02048C1.64112 0.626014 2.3001 0.639501 2.69456 1.05045L6.28062 4.78637L10.0165 1.20031C10.4275 0.805844 11.0865 0.819331 11.4809 1.23028C11.8754 1.64123 11.8619 2.30021 11.451 2.69468L7.71504 6.28073L11.3011 10.0166C11.6956 10.4276 11.6821 11.0866 11.2711 11.481C10.8602 11.8755 10.2012 11.862 9.80673 11.4511Z" fill="#0066FF" fill-opacity="0.8"/>
</svg>