<svg xmlns="http://www.w3.org/2000/svg" width="26" height="27" viewBox="0 0 26 27" fill="none">
  <path d="M2.6 26.0325C1.885 26.0325 1.27292 25.7779 0.76375 25.2688C0.254583 24.7596 0 24.1475 0 23.4325V5.2325C0 4.5175 0.254583 3.90542 0.76375 3.39625C1.27292 2.88708 1.885 2.6325 2.6 2.6325H14.2025L11.6025 5.2325H2.6V23.4325H20.8V14.3975L23.4 11.7975V23.4325C23.4 24.1475 23.1454 24.7596 22.6362 25.2688C22.1271 25.7779 21.515 26.0325 20.8 26.0325H2.6ZM7.8 18.2325V12.7075L19.7275 0.78C19.9875 0.52 20.28 0.325 20.605 0.195C20.93 0.065 21.255 0 21.58 0C21.9267 0 22.2571 0.065 22.5712 0.195C22.8854 0.325 23.1725 0.52 23.4325 0.78L25.2525 2.6325C25.4908 2.8925 25.675 3.17958 25.805 3.49375C25.935 3.80792 26 4.1275 26 4.4525C26 4.7775 25.9404 5.09708 25.8212 5.41125C25.7021 5.72542 25.5125 6.0125 25.2525 6.2725L13.325 18.2325H7.8ZM10.4 15.6325H12.22L19.76 8.0925L18.85 7.1825L17.9075 6.2725L10.4 13.78V15.6325Z" fill="#0066FF"/>
</svg>