<svg xmlns="http://www.w3.org/2000/svg" width="30" height="30" viewBox="0 0 30 30" >
<path d="M9 15V18C9 19.65 9.5875 21.0625 10.7625 22.2375C11.9375 23.4125 13.35 24 15 24C16.65 24 18.0625 23.4125 19.2375 22.2375C20.4125 21.0625 21 19.65 21 18V15H9ZM15 21.75C13.95 21.75 13.0625 21.3875 12.3375 20.6625C11.6125 19.9375 11.25 19.05 11.25 18V17.25H18.75V18C18.75 19.05 18.3875 19.9375 17.6625 20.6625C16.9375 21.3875 16.05 21.75 15 21.75ZM9.75 7.5C8.8 7.5 7.95625 7.84375 7.21875 8.53125C6.48125 9.21875 5.9625 10.1625 5.6625 11.3625L7.8375 11.8875C7.9875 11.2375 8.2375 10.7188 8.5875 10.3313C8.9375 9.94375 9.325 9.75 9.75 9.75C10.175 9.75 10.5625 9.94375 10.9125 10.3313C11.2625 10.7188 11.5125 11.2375 11.6625 11.8875L13.8375 11.3625C13.5375 10.1625 13.0188 9.21875 12.2813 8.53125C11.5438 7.84375 10.7 7.5 9.75 7.5ZM20.25 7.5C19.3 7.5 18.4563 7.84375 17.7188 8.53125C16.9813 9.21875 16.4625 10.1625 16.1625 11.3625L18.3375 11.8875C18.4875 11.2375 18.7375 10.7188 19.0875 10.3313C19.4375 9.94375 19.825 9.75 20.25 9.75C20.675 9.75 21.0625 9.94375 21.4125 10.3313C21.7625 10.7188 22.0125 11.2375 22.1625 11.8875L24.3375 11.3625C24.0375 10.1625 23.5188 9.21875 22.7812 8.53125C22.0438 7.84375 21.2 7.5 20.25 7.5ZM15 30C12.925 30 10.975 29.6063 9.15 28.8188C7.325 28.0313 5.7375 26.9625 4.3875 25.6125C3.0375 24.2625 1.96875 22.675 1.18125 20.85C0.39375 19.025 0 17.075 0 15C0 12.925 0.39375 10.975 1.18125 9.15C1.96875 7.325 3.0375 5.7375 4.3875 4.3875C5.7375 3.0375 7.325 1.96875 9.15 1.18125C10.975 0.39375 12.925 0 15 0C17.075 0 19.025 0.39375 20.85 1.18125C22.675 1.96875 24.2625 3.0375 25.6125 4.3875C26.9625 5.7375 28.0313 7.325 28.8188 9.15C29.6063 10.975 30 12.925 30 15C30 17.075 29.6063 19.025 28.8188 20.85C28.0313 22.675 26.9625 24.2625 25.6125 25.6125C24.2625 26.9625 22.675 28.0313 20.85 28.8188C19.025 29.6063 17.075 30 15 30ZM15 27C18.35 27 21.1875 25.8375 23.5125 23.5125C25.8375 21.1875 27 18.35 27 15C27 11.65 25.8375 8.8125 23.5125 6.4875C21.1875 4.1625 18.35 3 15 3C11.65 3 8.8125 4.1625 6.4875 6.4875C4.1625 8.8125 3 11.65 3 15C3 18.35 4.1625 21.1875 6.4875 23.5125C8.8125 25.8375 11.65 27 15 27Z"  fill-opacity="0.4"/>
</svg>