<svg width="48" height="20" viewBox="0 0 48 20" fill="none" xmlns="http://www.w3.org/2000/svg">
<path d="M9.35125 18.1456L13.2414 14.8118C14.1762 14.0116 14.6862 12.8442 14.6414 11.6263L14.4494 6.41506C20.4236 4.22392 26.9797 3.96823 33.1137 5.72752L33.3067 10.9671C33.3516 12.185 33.9462 13.3117 34.9373 14.0409L39.0329 17.0522C40.6795 18.2536 42.9548 18.0422 44.346 16.5446L46.7056 14.0044C48.2468 12.3453 48.1488 9.68301 46.3941 8.24453C33.1321 -2.62536 13.8027 -1.89914 1.39018 9.90235C-0.25385 11.466 -0.155764 14.1283 1.5034 15.6696L4.04352 18.0292C5.51285 19.4214 7.79748 19.4649 9.35125 18.1456Z" fill="white"/>
</svg>
