<svg xmlns="http://www.w3.org/2000/svg" width="23" height="26" viewBox="0 0 23 26">
  <path d="M2.74528 23.713C1.14355 22.369 0.253043 20.6724 0.0737606 18.6232C-0.105522 16.574 0.476841 14.7485 1.82085 13.1468L11.0244 2.17842C11.9886 1.02936 13.2231 0.388994 14.728 0.257333C16.2329 0.125673 17.5599 0.541933 18.7089 1.50611C19.858 2.4703 20.4984 3.70483 20.63 5.20972C20.7617 6.71461 20.3454 8.04159 19.3813 9.19065L11.0542 19.1144C10.4407 19.8456 9.6696 20.2519 8.74105 20.3331C7.8125 20.4143 6.98262 20.1482 6.25139 19.5346C5.52017 18.921 5.11394 18.15 5.0327 17.2214C4.95146 16.2929 5.21763 15.463 5.8312 14.7318L14.1582 4.80801L15.7251 6.1228L7.39811 16.0466C7.14976 16.3425 7.04169 16.6746 7.07391 17.0428C7.10612 17.4111 7.27021 17.7193 7.56619 17.9677C7.86216 18.216 8.19425 18.3241 8.56247 18.2919C8.93069 18.2597 9.23897 18.0956 9.48732 17.7996L17.8143 7.87586C18.4279 7.14464 18.6941 6.31475 18.6128 5.3862C18.5316 4.45765 18.1254 3.68659 17.3941 3.07302C16.6629 2.45945 15.833 2.19329 14.9045 2.27452C13.9759 2.35576 13.2049 2.76199 12.5913 3.49322L3.38776 14.4616C2.42358 15.6106 2.00732 16.9376 2.13898 18.4425C2.27064 19.9474 2.911 21.1819 4.06007 22.1461C5.20914 23.1103 6.53612 23.5266 8.04101 23.3949C9.54589 23.2632 10.7804 22.6229 11.7446 21.4738L20.9482 10.5054L22.5151 11.8202L13.3115 22.7886C11.9675 24.3903 10.2709 25.2808 8.22169 25.4601C6.17248 25.6394 4.34701 25.057 2.74528 23.713Z"  fill-opacity="0.4" class="fill-light"/>
</svg>