<svg xmlns="http://www.w3.org/2000/svg" width="23" height="23" viewBox="0 0 23 23" fill="none">
  <path d="M20.4444 2.55556V20.4444H2.55556V2.55556H20.4444ZM20.4444 0H2.55556C1.15 0 0 1.15 0 2.55556V20.4444C0 21.85 1.15 23 2.55556 23H20.4444C21.85 23 23 21.85 23 20.4444V2.55556C23 1.15 21.85 0 20.4444 0ZM14.2344 11.3211L10.4011 16.2661L7.66667 12.9567L3.83333 17.8889H19.1667L14.2344 11.3211Z" fill="white"/>
  <path d="M20.4444 2.55556V20.4444H2.55556V2.55556H20.4444ZM20.4444 0H2.55556C1.15 0 0 1.15 0 2.55556V20.4444C0 21.85 1.15 23 2.55556 23H20.4444C21.85 23 23 21.85 23 20.4444V2.55556C23 1.15 21.85 0 20.4444 0ZM14.2344 11.3211L10.4011 16.2661L7.66667 12.9567L3.83333 17.8889H19.1667L14.2344 11.3211Z" fill="white"/>
</svg>