<svg  viewBox="0 0 96 96"  xmlns="http://www.w3.org/2000/svg">
<path  d="M80.3817 95.27C70.9584 95.27 61.492 93.0794 51.9827 88.698C42.4727 84.3167 33.7357 78.1357 25.7717 70.155C17.8064 62.1737 11.633 53.4364 7.25169 43.943C2.87035 34.4497 0.679688 24.9914 0.679688 15.568C0.679688 14.0547 1.17969 12.7934 2.17969 11.784C3.17969 10.7747 4.42969 10.27 5.92969 10.27H22.2377C23.5004 10.27 24.614 10.682 25.5787 11.506C26.5434 12.3294 27.157 13.347 27.4197 14.559L30.2857 29.27C30.4844 30.6354 30.4427 31.8084 30.1607 32.789C29.8787 33.7697 29.372 34.5934 28.6407 35.26L17.0927 46.501C18.952 49.905 21.0757 53.1244 23.4637 56.159C25.851 59.1944 28.4357 62.0937 31.2177 64.857C33.9617 67.6004 36.8784 70.1484 39.9677 72.501C43.0577 74.8537 46.3944 77.0427 49.9777 79.068L61.1987 67.751C61.9807 66.937 62.928 66.3664 64.0407 66.039C65.1527 65.7124 66.308 65.6324 67.5067 65.799L81.3907 68.626C82.654 68.9594 83.6847 69.6037 84.4827 70.559C85.2807 71.5137 85.6797 72.597 85.6797 73.809V90.02C85.6797 91.52 85.175 92.77 84.1657 93.77C83.1564 94.77 81.895 95.27 80.3817 95.27ZM13.5447 39.405L22.4677 30.866C22.6284 30.738 22.7327 30.5617 22.7807 30.337C22.8287 30.113 22.8207 29.9047 22.7567 29.712L20.5837 18.539C20.5197 18.283 20.4074 18.0907 20.2467 17.962C20.0867 17.834 19.8784 17.77 19.6217 17.77H8.92969C8.73769 17.77 8.57735 17.834 8.44869 17.962C8.32069 18.0907 8.25669 18.251 8.25669 18.443C8.51335 21.8597 9.07269 25.331 9.93469 28.857C10.7967 32.3824 12 35.8984 13.5447 39.405ZM57.0447 82.616C60.3594 84.1614 63.8164 85.3427 67.4157 86.16C71.015 86.9767 74.3787 87.462 77.5067 87.616C77.6987 87.616 77.859 87.552 77.9877 87.424C78.1157 87.296 78.1797 87.1357 78.1797 86.943V76.424C78.1797 76.1674 78.1157 75.959 77.9877 75.799C77.859 75.6384 77.6667 75.526 77.4107 75.462L66.9107 73.328C66.718 73.264 66.5497 73.256 66.4057 73.304C66.2617 73.352 66.1094 73.456 65.9487 73.616L57.0447 82.616ZM51.9297 7.77002C50.867 7.77002 49.9764 7.41036 49.2577 6.69102C48.539 5.97236 48.1797 5.08135 48.1797 4.01802C48.1797 2.95535 48.539 2.06502 49.2577 1.34702C49.9764 0.629023 50.867 0.27002 51.9297 0.27002H91.9297C92.9924 0.27002 93.883 0.629689 94.6017 1.34902C95.3204 2.06769 95.6797 2.95869 95.6797 4.02203C95.6797 5.08469 95.3204 5.97502 94.6017 6.69302C93.883 7.41102 92.9924 7.77002 91.9297 7.77002H51.9297ZM51.9297 26.231C50.867 26.231 49.9764 25.8717 49.2577 25.153C48.539 24.4337 48.1797 23.5427 48.1797 22.48C48.1797 21.4167 48.539 20.5264 49.2577 19.809C49.9764 19.091 50.867 18.732 51.9297 18.732H91.9297C92.9924 18.732 93.883 19.0914 94.6017 19.81C95.3204 20.5294 95.6797 21.4204 95.6797 22.483C95.6797 23.5464 95.3204 24.437 94.6017 25.155C93.883 25.8724 92.9924 26.231 91.9297 26.231H51.9297ZM51.9297 44.693C50.867 44.693 49.9764 44.3334 49.2577 43.614C48.539 42.8954 48.1797 42.0044 48.1797 40.941C48.1797 39.8784 48.539 38.988 49.2577 38.27C49.9764 37.552 50.867 37.193 51.9297 37.193H91.9297C92.9924 37.193 93.883 37.5527 94.6017 38.272C95.3204 38.9907 95.6797 39.8817 95.6797 40.945C95.6797 42.0077 95.3204 42.898 94.6017 43.616C93.883 44.334 92.9924 44.693 91.9297 44.693H51.9297Z" />
</svg>
