<svg xmlns="http://www.w3.org/2000/svg" width="47" height="43" viewBox="0 0 47 43" fill="none">
  <path d="M10.3861 28.719H27.2346C27.7053 28.719 28.0994 28.5613 28.4169 28.2459C28.7348 27.931 28.8938 27.54 28.8938 27.0727C28.8938 26.6055 28.7348 26.2099 28.4169 25.886C28.0994 25.562 27.7053 25.4 27.2346 25.4H10.3861C9.91496 25.4 9.52066 25.5577 9.20315 25.873C8.88521 26.1879 8.72624 26.579 8.72624 27.0462C8.72624 27.5134 8.88521 27.909 9.20315 28.233C9.52066 28.557 9.91496 28.719 10.3861 28.719ZM10.3861 20.2944H36.4247C36.8954 20.2944 37.2895 20.1369 37.607 19.822C37.9249 19.5071 38.0839 19.116 38.0839 18.6488C38.0839 18.1816 37.9249 17.786 37.607 17.462C37.2895 17.138 36.8954 16.976 36.4247 16.976H10.3861C9.91496 16.976 9.52066 17.1335 9.20315 17.4484C8.88521 17.7633 8.72624 18.1544 8.72624 18.6216C8.72624 19.0888 8.88521 19.4844 9.20315 19.8084C9.52066 20.1324 9.91496 20.2944 10.3861 20.2944ZM10.3861 11.8704H36.4247C36.8954 11.8704 37.2895 11.7127 37.607 11.3974C37.9249 11.0825 38.0839 10.6914 38.0839 10.2242C38.0839 9.75698 37.9249 9.36139 37.607 9.03741C37.2895 8.71342 36.8954 8.55143 36.4247 8.55143H10.3861C9.91496 8.55143 9.52066 8.70911 9.20315 9.02446C8.88521 9.33939 8.72624 9.73045 8.72624 10.1977C8.72624 10.6649 8.88521 11.0605 9.20315 11.3844C9.52066 11.7084 9.91496 11.8704 10.3861 11.8704ZM8.18656 37.2704L3.6575 41.7995C3.01126 42.4457 2.26925 42.5932 1.43147 42.2421C0.593695 41.8909 0.174805 41.2581 0.174805 40.3435V4.10391C0.174805 2.95466 0.571477 1.98336 1.36482 1.19002C2.15817 0.396671 3.12947 0 4.27872 0H42.5314C43.6807 0 44.652 0.396671 45.4453 1.19002C46.2387 1.98336 46.6353 2.95466 46.6353 4.10391V33.1665C46.6353 34.3157 46.2387 35.287 45.4453 36.0804C44.652 36.8737 43.6807 37.2704 42.5314 37.2704H8.18656ZM5.26037 33.9521H42.5314C42.7277 33.9521 42.9078 33.8703 43.0718 33.7068C43.2353 33.5429 43.317 33.3628 43.317 33.1665V4.10391C43.317 3.90762 43.2353 3.72751 43.0718 3.56358C42.9078 3.40008 42.7277 3.31833 42.5314 3.31833H4.27872C4.08243 3.31833 3.90232 3.40008 3.73839 3.56358C3.57489 3.72751 3.49314 3.90762 3.49314 4.10391V35.7193L5.26037 33.9521Z" fill="black" fill-opacity="0.4"/>
</svg>