<svg width="38" height="25" viewBox="0 0 38 25" fill="none" xmlns="http://www.w3.org/2000/svg">
<path d="M2.11111 25C1.51296 25 1.01157 24.8003 0.606944 24.401C0.202315 24.0017 0 23.5069 0 22.9167C0 22.3264 0.202315 21.8316 0.606944 21.4323C1.01157 21.033 1.51296 20.8333 2.11111 20.8333H35.8889C36.487 20.8333 36.9884 21.033 37.3931 21.4323C37.7977 21.8316 38 22.3264 38 22.9167C38 23.5069 37.7977 24.0017 37.3931 24.401C36.9884 24.8003 36.487 25 35.8889 25H2.11111ZM2.11111 14.5833C1.51296 14.5833 1.01157 14.3837 0.606944 13.9844C0.202315 13.5851 0 13.0903 0 12.5C0 11.9097 0.202315 11.4149 0.606944 11.0156C1.01157 10.6163 1.51296 10.4167 2.11111 10.4167H35.8889C36.487 10.4167 36.9884 10.6163 37.3931 11.0156C37.7977 11.4149 38 11.9097 38 12.5C38 13.0903 37.7977 13.5851 37.3931 13.9844C36.9884 14.3837 36.487 14.5833 35.8889 14.5833H2.11111ZM2.11111 4.16667C1.51296 4.16667 1.01157 3.96701 0.606944 3.56771C0.202315 3.1684 0 2.67361 0 2.08333C0 1.49306 0.202315 0.998264 0.606944 0.598958C1.01157 0.199653 1.51296 0 2.11111 0H35.8889C36.487 0 36.9884 0.199653 37.3931 0.598958C37.7977 0.998264 38 1.49306 38 2.08333C38 2.67361 37.7977 3.1684 37.3931 3.56771C36.9884 3.96701 36.487 4.16667 35.8889 4.16667H2.11111Z" fill="white"/>
</svg>
