<svg xmlns="http://www.w3.org/2000/svg" width="35" height="35" viewBox="0 0 35 35" fill="none">
  <path d="M22.8758 17.2804C22.8565 18.8386 24.1156 20.1294 25.6738 20.1487C27.232 20.168 28.5227 18.9089 28.542 17.3507C28.5613 15.7925 27.3022 14.5018 25.744 14.4824C24.1858 14.4631 22.8951 15.7222 22.8758 17.2804ZM20.0427 17.2453C20.062 15.6871 18.8029 14.3964 17.2447 14.3771C15.6865 14.3577 14.3958 15.6168 14.3764 17.1751C14.3571 18.7333 15.6162 20.024 17.1744 20.0433C18.7326 20.0626 20.0234 18.8035 20.0427 17.2453ZM11.5433 17.1399C11.5626 15.5817 10.3036 14.291 8.74534 14.2717C7.18713 14.2524 5.89642 15.5115 5.8771 17.0697C5.85778 18.6279 7.11687 19.9186 8.67508 19.9379C10.2333 19.9572 11.524 18.6981 11.5433 17.1399Z" fill="#0066FF"/>
</svg>