<svg xmlns="http://www.w3.org/2000/svg" width="34" height="34" viewBox="0 0 34 34" fill="none">
  <g clip-path="url(#clip0_2288_454)">
    <path d="M17 11.3327C18.5583 11.3327 19.8333 10.0577 19.8333 8.49935C19.8333 6.94102 18.5583 5.66602 17 5.66602C15.4416 5.66602 14.1666 6.94102 14.1666 8.49935C14.1666 10.0577 15.4416 11.3327 17 11.3327ZM17 14.166C15.4416 14.166 14.1666 15.441 14.1666 16.9993C14.1666 18.5577 15.4416 19.8327 17 19.8327C18.5583 19.8327 19.8333 18.5577 19.8333 16.9993C19.8333 15.441 18.5583 14.166 17 14.166ZM17 22.666C15.4416 22.666 14.1666 23.941 14.1666 25.4993C14.1666 27.0577 15.4416 28.3327 17 28.3327C18.5583 28.3327 19.8333 27.0577 19.8333 25.4993C19.8333 23.941 18.5583 22.666 17 22.666Z" fill="white"/>
  </g>
  <defs>
    <clipPath id="clip0_2288_454">
      <rect width="34" height="34" fill="white"/>
    </clipPath>
  </defs>
</svg>