<svg xmlns="http://www.w3.org/2000/svg" width="6" height="24" viewBox="0 0 6 24" fill="none">
  <path d="M2.99996 6.33366C4.55829 6.33366 5.83329 5.05866 5.83329 3.50033C5.83329 1.94199 4.55829 0.666992 2.99996 0.666992C1.44163 0.666992 0.166626 1.94199 0.166626 3.50033C0.166626 5.05866 1.44163 6.33366 2.99996 6.33366ZM2.99996 9.16699C1.44163 9.16699 0.166626 10.442 0.166626 12.0003C0.166626 13.5587 1.44163 14.8337 2.99996 14.8337C4.55829 14.8337 5.83329 13.5587 5.83329 12.0003C5.83329 10.442 4.55829 9.16699 2.99996 9.16699ZM2.99996 17.667C1.44163 17.667 0.166626 18.942 0.166626 20.5003C0.166626 22.0587 1.44163 23.3337 2.99996 23.3337C4.55829 23.3337 5.83329 22.0587 5.83329 20.5003C5.83329 18.942 4.55829 17.667 2.99996 17.667Z" fill="white"/>
</svg>