<svg xmlns="http://www.w3.org/2000/svg" width="6" height="23" viewBox="0 0 6 23" fill="none">
  <path d="M2.83333 5.66667C4.39167 5.66667 5.66667 4.39167 5.66667 2.83333C5.66667 1.275 4.39167 0 2.83333 0C1.275 0 0 1.275 0 2.83333C0 4.39167 1.275 5.66667 2.83333 5.66667ZM2.83333 8.5C1.275 8.5 0 9.775 0 11.3333C0 12.8917 1.275 14.1667 2.83333 14.1667C4.39167 14.1667 5.66667 12.8917 5.66667 11.3333C5.66667 9.775 4.39167 8.5 2.83333 8.5ZM2.83333 17C1.275 17 0 18.275 0 19.8333C0 21.3917 1.275 22.6667 2.83333 22.6667C4.39167 22.6667 5.66667 21.3917 5.66667 19.8333C5.66667 18.275 4.39167 17 2.83333 17Z" fill="black" fill-opacity="0.4"/>
</svg>