<svg width="27" height="30" viewBox="0 0 27 30" fill="none" xmlns="http://www.w3.org/2000/svg">
<path d="M12.4209 30C14.1288 30 15.5262 28.6154 15.5262 26.9231H9.3157C9.3157 28.6154 10.6975 30 12.4209 30ZM21.7366 13.0769C21.7366 8.35385 19.1903 4.4 14.7499 3.35385V2.30769C14.7499 1.03077 13.7096 0 12.4209 0C11.1323 0 10.092 1.03077 10.092 2.30769V3.35385C9.71938 3.44615 9.36228 3.58462 9.0207 3.70769L21.7366 16.3077V13.0769ZM2.18919 1.30769L0 3.47692L4.36285 7.8C3.55549 9.33846 3.10523 11.1231 3.10523 13.0769V20.7692L1.10236 22.7538C0.124209 23.7231 0.80736 25.3846 2.18919 25.3846H22.1093L24.8108 28.0615L27 25.8923L2.18919 1.30769Z" fill="#0066FF"/>
</svg>
