<svg xmlns="http://www.w3.org/2000/svg" width="40" height="29" viewBox="0 0 40 29" fill="none">
  <path d="M25.4545 14.5C29.4727 14.5 32.7273 11.2556 32.7273 7.25C32.7273 3.24437 29.4727 0 25.4545 0C21.4364 0 18.1818 3.24437 18.1818 7.25C18.1818 11.2556 21.4364 14.5 25.4545 14.5ZM9.09091 10.875V7.25C9.09091 6.25313 8.27273 5.4375 7.27273 5.4375C6.27273 5.4375 5.45455 6.25313 5.45455 7.25V10.875H1.81818C0.818182 10.875 0 11.6906 0 12.6875C0 13.6844 0.818182 14.5 1.81818 14.5H5.45455V18.125C5.45455 19.1219 6.27273 19.9375 7.27273 19.9375C8.27273 19.9375 9.09091 19.1219 9.09091 18.125V14.5H12.7273C13.7273 14.5 14.5455 13.6844 14.5455 12.6875C14.5455 11.6906 13.7273 10.875 12.7273 10.875H9.09091ZM25.4545 18.125C20.6 18.125 10.9091 20.5537 10.9091 25.375V27.1875C10.9091 28.1844 11.7273 29 12.7273 29H38.1818C39.1818 29 40 28.1844 40 27.1875V25.375C40 20.5537 30.3091 18.125 25.4545 18.125Z" fill="white"/>
</svg>