<svg xmlns="http://www.w3.org/2000/svg" width="30" height="22" viewBox="0 0 30 22" fill="none">
  <path d="M19.0909 10.875C22.1045 10.875 24.5455 8.44172 24.5455 5.4375C24.5455 2.43328 22.1045 0 19.0909 0C16.0773 0 13.6364 2.43328 13.6364 5.4375C13.6364 8.44172 16.0773 10.875 19.0909 10.875ZM6.81818 8.15625V5.4375C6.81818 4.68984 6.20455 4.07812 5.45455 4.07812C4.70455 4.07812 4.09091 4.68984 4.09091 5.4375V8.15625H1.36364C0.613636 8.15625 0 8.76797 0 9.51562C0 10.2633 0.613636 10.875 1.36364 10.875H4.09091V13.5938C4.09091 14.3414 4.70455 14.9531 5.45455 14.9531C6.20455 14.9531 6.81818 14.3414 6.81818 13.5938V10.875H9.54545C10.2955 10.875 10.9091 10.2633 10.9091 9.51562C10.9091 8.76797 10.2955 8.15625 9.54545 8.15625H6.81818ZM19.0909 13.5938C15.45 13.5938 8.18182 15.4153 8.18182 19.0312V20.3906C8.18182 21.1383 8.79545 21.75 9.54545 21.75H28.6364C29.3864 21.75 30 21.1383 30 20.3906V19.0312C30 15.4153 22.7318 13.5938 19.0909 13.5938Z" fill="#0066FF"/>
</svg>