<svg xmlns="http://www.w3.org/2000/svg" width="25" height="33" viewBox="0 0 25 33" fill="none">
  <path d="M12.502 32.1348C14.3148 32.1348 15.7979 30.6516 15.7979 28.8389H9.20616C9.20616 30.6516 10.6728 32.1348 12.502 32.1348ZM22.3897 22.2471V14.0075C22.3897 8.94829 19.687 4.7131 14.9739 3.5925V2.4719C14.9739 1.10412 13.8698 0 12.502 0C11.1342 0 10.0301 1.10412 10.0301 2.4719V3.5925C5.30055 4.7131 2.61441 8.93182 2.61441 14.0075V22.2471L0.488576 24.373C-0.549624 25.4112 0.175467 27.191 1.64213 27.191H23.3455C24.8121 27.191 25.5537 25.4112 24.5155 24.373L22.3897 22.2471Z" fill="#0066FF"/>
</svg>