<svg xmlns="http://www.w3.org/2000/svg" width="31" height="30" viewBox="0 0 31 30" fill="none">
  <path d="M7.53605 27.0016V10.4732C7.53605 9.64869 7.83589 8.94908 8.43556 8.37439C9.03522 7.79971 9.74733 7.51237 10.5719 7.51237H27.0253C27.8499 7.51237 28.5557 7.80596 29.1429 8.39313C29.7301 8.98031 30.0237 9.68617 30.0237 10.5107V22.5041L22.5278 30H10.5344C9.70985 30 9.00399 29.7064 8.41682 29.1192C7.82964 28.5321 7.53605 27.8262 7.53605 27.0016ZM0.077652 6.38799C-0.0722656 5.56344 0.0901451 4.8201 0.564884 4.15796C1.03962 3.49583 1.68927 3.0898 2.51381 2.93988L18.7799 0.0539703C19.6044 -0.0959472 20.3478 0.0664634 21.0099 0.541202C21.672 1.01594 22.0781 1.66558 22.228 2.49013L22.6028 4.51402H19.5295L19.2671 3.01484L3.03852 5.90075L4.5377 14.3711V24.8278C4.13792 24.603 3.79436 24.3031 3.50702 23.9283C3.21967 23.5535 3.03852 23.1288 2.96356 22.654L0.077652 6.38799ZM10.5344 10.5107V27.0016H21.0286V21.0049H27.0253V10.5107H10.5344Z" fill="black" fill-opacity="0.4"/>
</svg>