<svg xmlns="http://www.w3.org/2000/svg" width="31" height="31" viewBox="0 0 31 31" fill="none">
  <path d="M22.7309 19.9916H21.2944L20.7852 19.5009C22.9673 16.9567 24.0947 13.4856 23.4764 9.79647C22.6218 4.74433 18.4032 0.70989 13.3117 0.0920027C5.61994 -0.853001 -0.853502 5.61664 0.0920566 13.3039C0.710306 18.3924 4.74711 22.6085 9.80222 23.4627C13.4935 24.0806 16.9666 22.9538 19.5124 20.7731L20.0033 21.2819V22.7176L27.7315 30.4412C28.477 31.1863 29.6953 31.1863 30.4408 30.4412C31.1864 29.6961 31.1864 28.4785 30.4408 27.7334L22.7309 19.9916ZM11.8206 19.9916C7.29285 19.9916 3.6379 16.3388 3.6379 11.8137C3.6379 7.28857 7.29285 3.63577 11.8206 3.63577C16.3484 3.63577 20.0033 7.28857 20.0033 11.8137C20.0033 16.3388 16.3484 19.9916 11.8206 19.9916Z" fill="white"/>
</svg>