<svg xmlns="http://www.w3.org/2000/svg" width="20" height="20" viewBox="0 0 20 20" fill="none">
  <path d="M5.3349 12.8978H6.26169L6.59017 12.5812C5.18239 10.9398 4.45504 8.7004 4.85391 6.3203C5.40529 3.06086 8.12699 0.457994 11.4118 0.0593566C16.3742 -0.550323 20.5506 3.62364 19.9406 8.58315C19.5417 11.866 16.9373 14.5862 13.676 15.1372C11.2945 15.5359 9.05378 14.8089 7.41137 13.402L7.09462 13.7303V14.6565L2.10874 19.6395C1.62774 20.1202 0.841736 20.1202 0.360744 19.6395C-0.120247 19.1588 -0.120247 18.3732 0.360744 17.8925L5.3349 12.8978ZM12.3738 12.8978C15.2949 12.8978 17.653 10.5412 17.653 7.62174C17.653 4.70231 15.2949 2.34566 12.3738 2.34566C9.45265 2.34566 7.09462 4.70231 7.09462 7.62174C7.09462 10.5412 9.45265 12.8978 12.3738 12.8978Z" fill="black" fill-opacity="0.4"/>
</svg>