<svg xmlns="http://www.w3.org/2000/svg" width="31" height="31" viewBox="0 0 31 31" fill="none">
  <path d="M11.0084 22.7309V21.2944L11.4991 20.7852C14.0433 22.9673 17.5144 24.0947 21.2035 23.4764C26.2557 22.6218 30.2901 18.4032 30.908 13.3117C31.853 5.61994 25.3834 -0.853502 17.6961 0.0920566C12.6076 0.710306 8.39146 4.74711 7.53732 9.80222C6.91943 13.4935 8.04617 16.9666 10.2269 19.5124L9.7181 20.0033H8.28242L0.558825 27.7315C-0.186274 28.477 -0.186274 29.6953 0.558825 30.4408C1.30392 31.1864 2.52153 31.1864 3.26662 30.4408L11.0084 22.7309ZM11.0084 11.8206C11.0084 7.29285 14.6612 3.6379 19.1863 3.6379C23.7114 3.6379 27.3642 7.29285 27.3642 11.8206C27.3642 16.3484 23.7114 20.0033 19.1863 20.0033C14.6612 20.0033 11.0084 16.3484 11.0084 11.8206Z" fill="#0066FF"/>
</svg>