<svg xmlns="http://www.w3.org/2000/svg" width="31" height="30" viewBox="0 0 31 30" fill="none">
  <path d="M10.9192 30L10.3222 25.2C9.99881 25.075 9.69408 24.925 9.40801 24.75C9.12194 24.575 8.84209 24.3875 8.56846 24.1875L4.12816 26.0625L0.0236816 18.9375L3.86697 16.0125C3.84209 15.8375 3.82965 15.6688 3.82965 15.5063V14.4938C3.82965 14.3313 3.84209 14.1625 3.86697 13.9875L0.0236816 11.0625L4.12816 3.9375L8.56846 5.8125C8.84209 5.6125 9.12816 5.425 9.42667 5.25C9.72517 5.075 10.0237 4.925 10.3222 4.8L10.9192 0H19.1282L19.7252 4.8C20.0486 4.925 20.3533 5.075 20.6394 5.25C20.9254 5.425 21.2053 5.6125 21.4789 5.8125L25.9192 3.9375L30.0237 11.0625L26.1804 13.9875C26.2053 14.1625 26.2177 14.3313 26.2177 14.4938V15.5063C26.2177 15.6688 26.1928 15.8375 26.1431 16.0125L29.9864 18.9375L25.8819 26.0625L21.4789 24.1875C21.2053 24.3875 20.9192 24.575 20.6207 24.75C20.3222 24.925 20.0237 25.075 19.7252 25.2L19.1282 30H10.9192ZM15.0983 20.25C16.5411 20.25 17.7724 19.7375 18.7923 18.7125C19.8122 17.6875 20.3222 16.45 20.3222 15C20.3222 13.55 19.8122 12.3125 18.7923 11.2875C17.7724 10.2625 16.5411 9.75 15.0983 9.75C13.6306 9.75 12.3931 10.2625 11.3856 11.2875C10.3782 12.3125 9.87443 13.55 9.87443 15C9.87443 16.45 10.3782 17.6875 11.3856 18.7125C12.3931 19.7375 13.6306 20.25 15.0983 20.25ZM15.0983 17.25C14.4764 17.25 13.9478 17.0312 13.5125 16.5938C13.0772 16.1562 12.8595 15.625 12.8595 15C12.8595 14.375 13.0772 13.8438 13.5125 13.4063C13.9478 12.9688 14.4764 12.75 15.0983 12.75C15.7202 12.75 16.2488 12.9688 16.6841 13.4063C17.1195 13.8438 17.3371 14.375 17.3371 15C17.3371 15.625 17.1195 16.1562 16.6841 16.5938C16.2488 17.0312 15.7202 17.25 15.0983 17.25ZM13.5311 27H16.4789L17.0013 23.025C17.7724 22.825 18.4876 22.5312 19.1468 22.1438C19.806 21.7563 20.4093 21.2875 20.9565 20.7375L24.6505 22.275L26.1058 19.725L22.8968 17.2875C23.0212 16.9375 23.1083 16.5688 23.158 16.1813C23.2078 15.7938 23.2326 15.4 23.2326 15C23.2326 14.6 23.2078 14.2063 23.158 13.8188C23.1083 13.4313 23.0212 13.0625 22.8968 12.7125L26.1058 10.275L24.6505 7.725L20.9565 9.3C20.4093 8.725 19.806 8.24375 19.1468 7.85625C18.4876 7.46875 17.7724 7.175 17.0013 6.975L16.5162 3H13.5685L13.0461 6.975C12.2749 7.175 11.5598 7.46875 10.9005 7.85625C10.2413 8.24375 9.63811 8.7125 9.09085 9.2625L5.39682 7.725L3.94159 10.275L7.15055 12.675C7.02617 13.05 6.9391 13.425 6.88935 13.8C6.8396 14.175 6.81473 14.575 6.81473 15C6.81473 15.4 6.8396 15.7875 6.88935 16.1625C6.9391 16.5375 7.02617 16.9125 7.15055 17.2875L3.94159 19.725L5.39682 22.275L9.09085 20.7C9.63811 21.275 10.2413 21.7563 10.9005 22.1438C11.5598 22.5312 12.2749 22.825 13.0461 23.025L13.5311 27Z" fill="black" fill-opacity="0.4"/>
</svg>