<svg xmlns="http://www.w3.org/2000/svg" width="31" height="30" viewBox="0 0 31 30" fill="none">
  <path d="M9.02368 15V18C9.02368 19.65 9.61118 21.0625 10.7862 22.2375C11.9612 23.4125 13.3737 24 15.0237 24C16.6737 24 18.0862 23.4125 19.2612 22.2375C20.4362 21.0625 21.0237 19.65 21.0237 18V15H9.02368ZM15.0237 21.75C13.9737 21.75 13.0862 21.3875 12.3612 20.6625C11.6362 19.9375 11.2737 19.05 11.2737 18V17.25H18.7737V18C18.7737 19.05 18.4112 19.9375 17.6862 20.6625C16.9612 21.3875 16.0737 21.75 15.0237 21.75ZM9.77368 7.5C8.82368 7.5 7.97993 7.84375 7.24243 8.53125C6.50493 9.21875 5.98618 10.1625 5.68618 11.3625L7.86118 11.8875C8.01118 11.2375 8.26118 10.7188 8.61118 10.3313C8.96118 9.94375 9.34868 9.75 9.77368 9.75C10.1987 9.75 10.5862 9.94375 10.9362 10.3313C11.2862 10.7188 11.5362 11.2375 11.6862 11.8875L13.8612 11.3625C13.5612 10.1625 13.0424 9.21875 12.3049 8.53125C11.5674 7.84375 10.7237 7.5 9.77368 7.5ZM20.2737 7.5C19.3237 7.5 18.4799 7.84375 17.7424 8.53125C17.0049 9.21875 16.4862 10.1625 16.1862 11.3625L18.3612 11.8875C18.5112 11.2375 18.7612 10.7188 19.1112 10.3313C19.4612 9.94375 19.8487 9.75 20.2737 9.75C20.6987 9.75 21.0862 9.94375 21.4362 10.3313C21.7862 10.7188 22.0362 11.2375 22.1862 11.8875L24.3612 11.3625C24.0612 10.1625 23.5424 9.21875 22.8049 8.53125C22.0674 7.84375 21.2237 7.5 20.2737 7.5ZM15.0237 30C12.9487 30 10.9987 29.6063 9.17368 28.8188C7.34868 28.0313 5.76118 26.9625 4.41118 25.6125C3.06118 24.2625 1.99243 22.675 1.20493 20.85C0.417432 19.025 0.0236816 17.075 0.0236816 15C0.0236816 12.925 0.417432 10.975 1.20493 9.15C1.99243 7.325 3.06118 5.7375 4.41118 4.3875C5.76118 3.0375 7.34868 1.96875 9.17368 1.18125C10.9987 0.39375 12.9487 0 15.0237 0C17.0987 0 19.0487 0.39375 20.8737 1.18125C22.6987 1.96875 24.2862 3.0375 25.6362 4.3875C26.9862 5.7375 28.0549 7.325 28.8424 9.15C29.6299 10.975 30.0237 12.925 30.0237 15C30.0237 17.075 29.6299 19.025 28.8424 20.85C28.0549 22.675 26.9862 24.2625 25.6362 25.6125C24.2862 26.9625 22.6987 28.0313 20.8737 28.8188C19.0487 29.6063 17.0987 30 15.0237 30ZM15.0237 27C18.3737 27 21.2112 25.8375 23.5362 23.5125C25.8612 21.1875 27.0237 18.35 27.0237 15C27.0237 11.65 25.8612 8.8125 23.5362 6.4875C21.2112 4.1625 18.3737 3 15.0237 3C11.6737 3 8.83618 4.1625 6.51118 6.4875C4.18618 8.8125 3.02368 11.65 3.02368 15C3.02368 18.35 4.18618 21.1875 6.51118 23.5125C8.83618 25.8375 11.6737 27 15.0237 27Z" fill="black" fill-opacity="0.4"/>
</svg>