<svg xmlns="http://www.w3.org/2000/svg" width="31" height="27" viewBox="0 0 31 27" fill="none">
  <path d="M13.5237 27V24H25.5237V13.35C25.5237 10.425 24.5049 7.94375 22.4674 5.90625C20.4299 3.86875 17.9487 2.85 15.0237 2.85C12.0987 2.85 9.61743 3.86875 7.57993 5.90625C5.54243 7.94375 4.52368 10.425 4.52368 13.35V22.5H3.02368C2.19868 22.5 1.49243 22.2063 0.904932 21.6188C0.317432 21.0312 0.0236816 20.325 0.0236816 19.5V16.5C0.0236816 15.975 0.154932 15.4813 0.417432 15.0188C0.679932 14.5563 1.04868 14.1875 1.52368 13.9125L1.63618 11.925C1.83618 10.225 2.32993 8.65 3.11743 7.2C3.90493 5.75 4.89243 4.4875 6.07993 3.4125C7.26743 2.3375 8.62993 1.5 10.1674 0.9C11.7049 0.3 13.3237 0 15.0237 0C16.7237 0 18.3362 0.3 19.8612 0.9C21.3862 1.5 22.7487 2.33125 23.9487 3.39375C25.1487 4.45625 26.1362 5.7125 26.9112 7.1625C27.6862 8.6125 28.1862 10.1875 28.4112 11.8875L28.5237 13.8375C28.9987 14.0625 29.3674 14.4 29.6299 14.85C29.8924 15.3 30.0237 15.775 30.0237 16.275V19.725C30.0237 20.225 29.8924 20.7 29.6299 21.15C29.3674 21.6 28.9987 21.9375 28.5237 22.1625V24C28.5237 24.825 28.2299 25.5313 27.6424 26.1188C27.0549 26.7063 26.3487 27 25.5237 27H13.5237ZM10.5237 16.5C10.0987 16.5 9.74243 16.3563 9.45493 16.0688C9.16743 15.7813 9.02368 15.425 9.02368 15C9.02368 14.575 9.16743 14.2188 9.45493 13.9313C9.74243 13.6438 10.0987 13.5 10.5237 13.5C10.9487 13.5 11.3049 13.6438 11.5924 13.9313C11.8799 14.2188 12.0237 14.575 12.0237 15C12.0237 15.425 11.8799 15.7813 11.5924 16.0688C11.3049 16.3563 10.9487 16.5 10.5237 16.5ZM19.5237 16.5C19.0987 16.5 18.7424 16.3563 18.4549 16.0688C18.1674 15.7813 18.0237 15.425 18.0237 15C18.0237 14.575 18.1674 14.2188 18.4549 13.9313C18.7424 13.6438 19.0987 13.5 19.5237 13.5C19.9487 13.5 20.3049 13.6438 20.5924 13.9313C20.8799 14.2188 21.0237 14.575 21.0237 15C21.0237 15.425 20.8799 15.7813 20.5924 16.0688C20.3049 16.3563 19.9487 16.5 19.5237 16.5ZM6.06118 14.175C5.88618 11.525 6.68618 9.25 8.46118 7.35C10.2362 5.45 12.4487 4.5 15.0987 4.5C17.3237 4.5 19.2799 5.20625 20.9674 6.61875C22.6549 8.03125 23.6737 9.8375 24.0237 12.0375C21.7487 12.0125 19.6549 11.4 17.7424 10.2C15.8299 9 14.3612 7.375 13.3362 5.325C12.9362 7.325 12.0924 9.10625 10.8049 10.6688C9.51743 12.2313 7.93618 13.4 6.06118 14.175Z" fill="black" fill-opacity="0.4"/>
</svg>