<svg xmlns="http://www.w3.org/2000/svg" width="20" height="27" viewBox="0 0 20 27">
  <path d="M9.85172 17.0526C8.66751 17.0526 7.66093 16.6382 6.83198 15.8092C6.00304 14.9803 5.58856 13.9737 5.58856 12.7895V4.26316C5.58856 3.07895 6.00304 2.07237 6.83198 1.24342C7.66093 0.414474 8.66751 0 9.85172 0C11.0359 0 12.0425 0.414474 12.8715 1.24342C13.7004 2.07237 14.1149 3.07895 14.1149 4.26316V12.7895C14.1149 13.9737 13.7004 14.9803 12.8715 15.8092C12.0425 16.6382 11.0359 17.0526 9.85172 17.0526ZM8.43067 25.5789V22.6303C6.25172 22.3224 4.38659 21.3987 2.83527 19.8592C1.28396 18.3197 0.34251 16.4487 0.0109312 14.2461C-0.0364372 13.8434 0.0701417 13.5 0.330668 13.2158C0.591194 12.9316 0.922773 12.7895 1.3254 12.7895C1.72804 12.7895 2.06554 12.9257 2.3379 13.198C2.61027 13.4704 2.79383 13.8079 2.88856 14.2105C3.22014 15.8684 4.04317 17.2303 5.35764 18.2961C6.67211 19.3618 8.17014 19.8947 9.85172 19.8947C11.557 19.8947 13.0609 19.3559 14.3636 18.2783C15.6662 17.2007 16.4833 15.8447 16.8149 14.2105C16.9096 13.8079 17.0932 13.4704 17.3655 13.198C17.6379 12.9257 17.9754 12.7895 18.378 12.7895C18.7807 12.7895 19.1122 12.9316 19.3728 13.2158C19.6333 13.5 19.7399 13.8434 19.6925 14.2461C19.3609 16.4013 18.4254 18.2605 16.8859 19.8237C15.3465 21.3868 13.4754 22.3224 11.2728 22.6303V25.5789C11.2728 25.9816 11.1366 26.3191 10.8642 26.5914C10.5919 26.8638 10.2544 27 9.85172 27C9.44909 27 9.11159 26.8638 8.83922 26.5914C8.56685 26.3191 8.43067 25.9816 8.43067 25.5789ZM9.85172 14.2105C10.2544 14.2105 10.5919 14.0743 10.8642 13.802C11.1366 13.5296 11.2728 13.1921 11.2728 12.7895V4.26316C11.2728 3.86053 11.1366 3.52303 10.8642 3.25066C10.5919 2.97829 10.2544 2.84211 9.85172 2.84211C9.44909 2.84211 9.11159 2.97829 8.83922 3.25066C8.56685 3.52303 8.43067 3.86053 8.43067 4.26316V12.7895C8.43067 13.1921 8.56685 13.5296 8.83922 13.802C9.11159 14.0743 9.44909 14.2105 9.85172 14.2105Z" fill-opacity="0.4"/>
</svg>