<svg xmlns="http://www.w3.org/2000/svg" width="31" height="24" viewBox="0 0 31 24" fill="none">
  <path d="M6.02368 24C4.37368 24 2.96118 23.4125 1.78618 22.2375C0.611182 21.0625 0.0236816 19.65 0.0236816 18V6C0.0236816 4.35 0.611182 2.9375 1.78618 1.7625C2.96118 0.5875 4.37368 0 6.02368 0H24.0237C25.6737 0 27.0862 0.5875 28.2612 1.7625C29.4362 2.9375 30.0237 4.35 30.0237 6V18C30.0237 19.65 29.4362 21.0625 28.2612 22.2375C27.0862 23.4125 25.6737 24 24.0237 24H6.02368ZM6.02368 6H24.0237C24.5737 6 25.0987 6.0625 25.5987 6.1875C26.0987 6.3125 26.5737 6.5125 27.0237 6.7875V6C27.0237 5.175 26.7299 4.46875 26.1424 3.88125C25.5549 3.29375 24.8487 3 24.0237 3H6.02368C5.19868 3 4.49243 3.29375 3.90493 3.88125C3.31743 4.46875 3.02368 5.175 3.02368 6V6.7875C3.47368 6.5125 3.94868 6.3125 4.44868 6.1875C4.94868 6.0625 5.47368 6 6.02368 6ZM3.24868 10.875L19.9362 14.925C20.1612 14.975 20.3862 14.975 20.6112 14.925C20.8362 14.875 21.0487 14.775 21.2487 14.625L26.4612 10.275C26.1862 9.9 25.8362 9.59375 25.4112 9.35625C24.9862 9.11875 24.5237 9 24.0237 9H6.02368C5.37368 9 4.80493 9.16875 4.31743 9.50625C3.82993 9.84375 3.47368 10.3 3.24868 10.875Z" fill="black" fill-opacity="0.4"/>
</svg>